<svg width="29" height="26" viewBox="0 0 29 26" fill="none" xmlns="http://www.w3.org/2000/svg">
<path d="M28 22.5V3.5C28 2.11929 26.8807 1 25.5 1C24.1193 1 23 2.11929 23 3.5V22.5C23 23.8807 24.1193 25 25.5 25C26.8807 25 28 23.8807 28 22.5Z" stroke="#4BC767" stroke-width="1.5"/>
<path d="M17 22.5V10.5C17 9.11929 15.8807 8 14.5 8C13.1193 8 12 9.11929 12 10.5V22.5C12 23.8807 13.1193 25 14.5 25C15.8807 25 17 23.8807 17 22.5Z" stroke="#4BC767" stroke-width="1.5"/>
<path d="M6 22.5V15.5C6 14.1193 4.88071 13 3.5 13C2.11929 13 1 14.1193 1 15.5V22.5C1 23.8807 2.11929 25 3.5 25C4.88071 25 6 23.8807 6 22.5Z" stroke="#4BC767" stroke-width="1.5"/>
</svg>
