<svg width="24" height="20" viewBox="0 0 24 20" fill="none" xmlns="http://www.w3.org/2000/svg">
<path d="M19.0694 0.718459C19.4606 0.32289 20.0995 0.32275 20.491 0.718146L23.3039 3.55953C23.6896 3.94905 23.6898 4.5764 23.3044 4.96617L9.15107 19.2808C8.75966 19.6767 8.12032 19.6767 7.7289 19.2809L0.695681 12.1682C0.310276 11.7784 0.310461 11.1511 0.696097 10.7615L3.50935 7.91985C3.90067 7.52458 4.53933 7.52458 4.93065 7.91985L7.72904 10.7465C8.12048 11.1419 8.75938 11.1418 9.15065 10.7462L19.0694 0.718459ZM20.4949 3.55551C20.1038 3.15763 19.459 3.15307 19.0668 3.54992L9.14642 13.5882C8.75684 13.9824 8.12097 13.9846 7.7287 13.5931L4.90868 10.7783C4.52679 10.3971 3.90953 10.3934 3.52305 10.7699C3.13027 11.1526 3.12487 11.7821 3.51103 12.1715L7.72934 16.4249C8.12077 16.8195 8.75894 16.8193 9.15002 16.4242L20.4959 4.96369C20.8808 4.57497 20.8783 3.94559 20.4949 3.55551Z" fill="#042F67"/>
</svg>
