<svg width="57" height="64" viewBox="0 0 57 64" fill="none" xmlns="http://www.w3.org/2000/svg">
<path d="M31.6627 16.7451H26.872H24.83V34.8999L19.8822 30.7953L15.7983 36.7154L24.83 43.7405V54.1598L29.3851 55.8174L31.6627 54.1598V36.7154L38.888 32.2161V23.2966L31.6627 28.1116V16.7451Z" fill="url(#paint0_linear_238_321)"/>
<path fill-rule="evenodd" clip-rule="evenodd" d="M6.94521 11.5864L21.3959 3.15587C25.7466 0.617655 31.1255 0.612283 35.4813 3.1418L50.0306 11.5909C54.345 14.0964 57 18.7085 57 23.6976V40.3731C57 45.3558 54.3517 49.9631 50.046 52.4708L35.6448 60.8585C31.3071 63.3848 25.9488 63.3955 21.6011 60.8865L7.00231 52.4616C2.66939 49.9611 0 45.3386 0 40.3359V23.679C0 18.6999 2.6445 14.0954 6.94521 11.5864ZM12.5105 19.9385L26.0084 12.0476C27.5699 11.1347 29.5028 11.1364 31.0628 12.052L44.5068 19.9429C46.0363 20.8406 46.9758 22.4814 46.9758 24.255V39.9904C46.9758 41.7831 46.0161 43.4386 44.4603 44.3294L30.9576 52.061C29.4131 52.9454 27.515 52.9421 25.9736 52.0524L12.5885 44.3266C11.0465 43.4366 10.0941 41.7938 10.088 40.0134L10.034 24.2722C10.0279 22.4894 10.9715 20.8382 12.5105 19.9385Z" fill="url(#paint1_linear_238_321)"/>
<defs>
<linearGradient id="paint0_linear_238_321" x1="20.0551" y1="8.47474" x2="35.4894" y2="70.5307" gradientUnits="userSpaceOnUse">
<stop stop-color="#008613"/>
<stop offset="1" stop-color="#00C61B" stop-opacity="0.76"/>
</linearGradient>
<linearGradient id="paint1_linear_238_321" x1="-0.0655194" y1="-2.37717" x2="62.8203" y2="81.6252" gradientUnits="userSpaceOnUse">
<stop stop-color="#44C260" stop-opacity="0.95"/>
<stop offset="1" stop-color="#05A10C"/>
</linearGradient>
</defs>
</svg>
